<?xml version="1.0" standalone="no"?>
<!DOCTYPE svg PUBLIC "-//W3C//DTD SVG 20010904//EN"
        "http://www.w3.org/TR/2001/REC-SVG-20010904/DTD/svg10.dtd">
<svg version="1.0" xmlns="http://www.w3.org/2000/svg"
     width="160.000000pt" height="160.000000pt" viewBox="0 0 160.000000 160.000000"
     preserveAspectRatio="xMidYMid meet">
    <metadata>
        Created by potrace 1.13, written by Peter Selinger 2001-2015
    </metadata>
    <g transform="translate(0.000000,160.000000) scale(0.080000,-0.080000)"
       fill="#000000" stroke="none">
        <path d="M487 1993 c-5 -5 -83 -13 -167 -17 -25 -1 -51 -6 -59 -10 -7 -5 -34
-10 -59 -13 -26 -2 -57 -11 -69 -18 -33 -22 -73 -61 -73 -73 0 -6 -6 -17 -13
-24 -16 -16 -29 -135 -16 -144 5 -3 6 -11 2 -17 -4 -6 -8 -54 -9 -107 -2 -52
-5 -137 -8 -189 -3 -69 -1 -104 10 -129 17 -41 18 -72 3 -72 -6 0 -9 -44 -8
-127 1 -71 -2 -140 -6 -156 -5 -18 -2 -35 9 -52 19 -28 25 -153 8 -164 -8 -5
-10 -78 -8 -239 2 -206 5 -234 21 -252 9 -10 15 -26 11 -35 -10 -27 16 -92 45
-109 14 -8 29 -13 33 -9 3 3 14 -2 25 -11 16 -15 39 -17 158 -16 206 3 524 3
643 1 58 -1 168 -2 245 -2 77 0 160 -2 185 -4 41 -4 56 -1 115 21 11 4 25 6
30 4 6 -1 30 -4 55 -6 40 -3 82 -8 172 -20 14 -2 31 3 38 11 10 12 8 17 -11
25 -23 10 -23 10 -2 6 13 -2 25 -1 28 4 2 4 16 5 30 2 14 -2 25 0 25 6 0 6 10
12 22 14 13 2 24 11 26 21 2 11 12 27 23 38 23 23 24 42 4 59 -20 17 -19 33 3
26 29 -10 41 38 38 154 -1 58 -6 112 -10 120 -7 16 -2 167 8 267 4 43 2 54
-12 62 -9 6 -12 11 -7 11 16 0 5 81 -11 87 -20 8 -17 23 5 23 23 0 39 74 20
96 -9 11 -9 20 0 38 9 15 12 55 9 120 -2 53 -1 96 2 96 12 0 4 108 -10 125
-14 17 -13 18 4 12 18 -7 18 -3 12 60 -4 38 -10 84 -12 103 -3 19 -5 42 -4 50
0 8 2 58 3 110 3 129 -13 161 -85 174 -20 4 -38 13 -41 20 -3 7 -16 14 -29 14
-30 2 -50 6 -64 15 -15 9 -184 5 -178 -5 3 -4 0 -8 -5 -8 -6 0 -11 5 -11 10 0
6 -13 10 -30 10 -22 0 -30 -5 -30 -17 -1 -17 -1 -17 -11 -1 -8 14 -23 17 -69
17 -33 -1 -60 -6 -60 -11 0 -6 -7 -5 -16 3 -13 10 -17 10 -24 -1 -6 -10 -23
-11 -69 -7 -36 4 -61 3 -61 -3 0 -5 -11 -6 -27 0 -16 4 -104 11 -198 14 -341
12 -460 18 -472 21 -6 2 -13 1 -16 -2z m-127 -279 l0 -74 29 0 c21 0 32 -6 36
-20 8 -27 -11 -50 -41 -50 l-24 0 -2 -257 -3 -258 -30 0 -30 0 -3 257 -2 257
-38 3 c-34 3 -37 6 -37 33 0 27 3 30 38 33 l37 3 0 69 c0 73 12 93 51 83 16
-5 19 -16 19 -79z m128 41 c2 -22 8 -45 14 -52 15 -18 161 -18 156 0 -3 7 -32
14 -79 17 -69 5 -74 7 -77 29 -5 32 12 41 78 41 73 0 122 -25 135 -68 l9 -33
81 3 80 3 3 42 c3 44 22 69 47 59 11 -4 15 -21 15 -64 0 -50 -4 -62 -25 -82
-22 -21 -38 -24 -115 -28 -64 -3 -90 -8 -90 -17 0 -9 25 -14 86 -16 82 -4 87
-5 115 -37 27 -30 29 -39 29 -108 0 -67 -3 -78 -25 -100 -33 -33 -32 -42 8
-46 28 -3 32 -6 32 -33 0 -26 -4 -30 -32 -33 l-32 -3 -3 -87 c-3 -85 -3 -87
-28 -87 -25 0 -25 2 -28 87 l-3 88 -207 2 -207 3 0 30 0 30 208 3 c175 2 207
5 207 17 0 13 -25 15 -157 15 -214 0 -253 20 -253 130 0 92 48 130 163 130 53
0 67 3 67 15 0 12 -14 15 -62 15 -128 0 -168 28 -168 116 0 57 5 66 35 62 16
-2 21 -12 23 -43z m782 6 c44 -31 49 -67 49 -346 1 -292 -4 -326 -52 -355 -41
-26 -181 -29 -191 -5 -13 35 4 45 74 45 105 0 100 -16 100 310 0 153 -3 285
-6 294 -8 20 -89 22 -101 4 -4 -7 -10 -130 -13 -273 l-5 -260 -25 0 -25 0 -3
265 c-2 248 -1 267 18 297 32 53 123 65 180 24z m463 18 c26 -7 44 -21 57 -42
18 -30 20 -52 20 -294 0 -165 -4 -264 -10 -268 -6 -3 -19 -3 -30 0 -19 6 -20
16 -20 259 0 289 0 289 -70 284 -40 -3 -44 -6 -53 -37 -4 -18 -7 -150 -5 -293
4 -303 -2 -288 111 -288 l68 0 -3 -27 c-3 -28 -4 -28 -85 -31 -78 -3 -83 -2
-115 27 l-33 29 -3 299 c-2 269 -1 301 15 333 26 51 84 69 156 49z m-268 -364
l0 -360 -25 0 -25 0 -3 350 c-1 192 0 356 3 363 3 7 15 12 27 10 l23 -3 0
-360z m-640 -260 l0 -30 -200 0 c-185 0 -200 1 -203 18 -9 47 -5 48 205 45
l198 -3 0 -30z m793 -272 l3 -73 48 0 c67 0 80 13 83 85 3 57 4 60 31 63 l27
3 0 -75 c0 -64 -3 -79 -24 -103 -21 -24 -32 -28 -95 -31 l-71 -4 0 -33 c0 -32
1 -32 54 -38 68 -7 110 -28 124 -64 7 -18 11 -96 9 -213 l-2 -185 -25 0 c-24
0 -25 3 -28 66 l-3 67 -37 -9 c-20 -5 -74 -9 -120 -9 -69 0 -84 3 -90 18 -4
10 -9 -14 -12 -58 -5 -72 -6 -75 -30 -75 -25 0 -25 1 -32 109 -4 60 -10 111
-13 114 -2 3 -19 1 -37 -4 l-33 -10 -5 -104 c-5 -104 -5 -105 -30 -105 -21 0
-26 5 -28 33 -2 17 -5 32 -8 32 -3 0 -40 -16 -84 -36 -78 -36 -110 -39 -110
-10 0 19 36 44 128 90 41 21 72 43 72 51 0 8 -2 15 -5 15 -3 0 -43 -19 -90
-42 -73 -36 -87 -41 -95 -28 -19 30 -4 46 90 92 70 35 96 53 98 69 4 25 9 26
-89 -25 -79 -41 -109 -43 -109 -6 0 15 21 31 88 64 l87 45 -82 0 c-72 1 -84 4
-93 21 -8 14 -8 26 0 40 9 17 21 20 85 20 60 0 75 3 75 15 0 12 -15 15 -74 15
-77 0 -102 12 -90 44 4 10 18 16 40 16 27 0 34 4 34 20 0 16 -7 20 -34 20 -26
0 -36 5 -41 20 -15 47 4 51 214 48 l196 -3 0 -30 c0 -29 -1 -30 -53 -33 -44
-3 -53 -6 -50 -20 2 -12 17 -18 53 -22 45 -5 50 -7 50 -30 0 -25 -1 -25 -92
-28 -73 -2 -93 -6 -93 -17 0 -11 20 -15 93 -17 84 -3 93 -1 102 17 6 11 21 21
33 23 21 3 22 7 22 136 0 73 3 136 7 140 4 4 19 6 33 4 24 -3 25 -6 28 -75z
m-988 42 c10 -9 54 -14 130 -17 125 -4 156 -15 178 -64 8 -17 12 -122 12 -335
l0 -310 -27 3 -28 3 -5 303 c-5 286 -6 304 -24 318 -14 10 -50 14 -122 14 -86
0 -105 3 -127 20 -14 11 -34 20 -45 20 -10 0 -27 -9 -37 -20 -16 -18 -31 -20
-120 -20 -149 0 -139 25 -145 -344 l-5 -301 -25 0 -25 0 -3 310 c-2 222 1 318
10 339 18 45 76 66 185 66 75 0 99 4 125 20 35 22 70 20 98 -5z m858 -4 c2
-13 -2 -28 -10 -32 -7 -5 -97 -9 -200 -9 -175 0 -188 1 -198 19 -5 11 -7 27
-4 35 6 14 31 16 208 14 l201 -3 3 -24z m-705 -122 c53 -14 77 -44 77 -94 0
-79 -44 -105 -177 -105 -65 0 -73 -2 -73 -19 0 -24 19 -31 83 -31 80 0 125
-16 147 -53 17 -27 20 -51 20 -165 l0 -133 -27 3 -28 3 -5 123 c-6 145 -10
152 -100 152 -32 0 -71 5 -89 11 -33 12 -61 52 -61 89 0 20 -4 21 -92 18 -88
-3 -93 -4 -96 -25 -3 -22 0 -23 66 -23 76 0 99 -13 87 -50 -6 -18 -15 -20 -76
-20 -73 0 -122 17 -133 45 -15 40 -6 91 20 116 23 21 36 24 125 27 l99 4 0 34
0 33 -127 3 c-114 3 -128 5 -131 21 -9 44 8 47 237 47 119 0 233 -5 254 -11z
m-426 -359 c5 -19 14 -20 178 -19 165 0 173 1 178 20 4 15 12 20 29 17 21 -3
23 -8 26 -80 6 -156 -24 -178 -233 -178 -207 0 -235 20 -235 168 0 43 3 82 7
85 14 14 45 6 50 -13z"/>
        <path d="M508 1519 c-36 -20 -16 -29 67 -29 78 0 85 2 85 20 0 18 -7 20 -67
20 -38 0 -76 -5 -85 -11z"/>
        <path d="M720 1510 c0 -18 7 -20 85 -20 66 0 85 3 85 14 0 18 -31 26 -107 26
-56 0 -63 -2 -63 -20z"/>
        <path d="M492 1418 c6 -17 42 -26 111 -27 51 -1 57 1 57 19 0 18 -7 20 -86 20
-63 0 -85 -3 -82 -12z"/>
        <path d="M720 1410 c0 -18 7 -20 54 -20 73 0 116 10 116 26 0 11 -20 14 -85
14 -78 0 -85 -2 -85 -20z"/>
        <path d="M1212 753 c2 -14 15 -19 56 -21 47 -3 52 -1 52 17 0 19 -6 21 -56 21
-47 0 -55 -3 -52 -17z"/>
        <path d="M1488 590 c-3 -23 -8 -25 -61 -30 -42 -4 -63 -11 -73 -25 -22 -30
-17 -34 40 -28 48 5 55 3 69 -18 10 -13 20 -45 23 -72 5 -37 9 -45 16 -33 7
13 27 16 107 16 109 0 145 14 125 47 -9 15 -29 19 -120 23 l-109 5 -3 27 c-3
22 2 29 23 34 27 7 185 -3 211 -13 20 -7 19 51 -2 68 -10 8 -58 15 -129 18
l-114 6 -3 -25z"/>
        <path d="M610 705 l0 -35 74 0 c90 0 106 5 106 35 0 26 -29 35 -121 35 l-59 0
0 -35z"/>
        <path d="M362 323 c4 -54 29 -63 171 -63 147 0 177 12 177 73 l0 27 -176 0
-175 0 3 -37z"/>
    </g>
</svg>
